<?xml version="1.0" encoding="UTF-8"?>
<svg width="755.91" height="94.488" version="1.1" viewBox="0 0 200 25" xmlns="http://www.w3.org/2000/svg">
<defs>
<clipPath id="b">
<path d="m320.22 346h28.777v57.352h-28.777z"/>
</clipPath>
<clipPath id="a">
<path d="m336 345.32h29.566v56.68h-29.566z"/>
</clipPath>
</defs>
<g transform="matrix(.97177 0 0 .97177 -6.5243 -23.852)">
<g transform="translate(-1804.5 -103.84)">
<g transform="matrix(.95341 0 0 .95341 75.037 8.5336)">
<g transform="matrix(.35278 0 0 .35278 1728.8 7.5504)" clip-path="url(#b)">
<path d="m320.22 374.34c0 16.004 10.156 29.016 22.672 29.016 1.543 0 3.0391-0.18359 4.4883-0.58984-0.043-0.27344-0.043-0.54688 0.0469-0.77344 1.043-2.7188 1.543-5.7109 1.543-9.1094 0-9.2031-3.582-13.648-7.3945-18.406-3.6719-4.582-7.4805-9.2969-7.4805-18.637 0-3.3516 0.45312-6.2109 1.4531-8.9297-8.8906 3.8984-15.328 14.734-15.328 27.43z" fill="#995c30"/>
</g>
<g transform="matrix(.35278 0 0 .35278 1728.8 7.5504)" clip-path="url(#a)">
<path d="m342.89 345.32c-1.3594 0-2.6758 0.13672-3.9453 0.45313 0 0.043-0.043 0.0898-0.043 0.0898-1.4531 2.9453-2.0859 6.1211-2.0859 9.9297 0 8.3398 3.1719 12.332 6.8906 16.91 3.7656 4.668 7.9805 9.9297 7.9805 20.082 0 3.2188-0.40625 6.1211-1.2695 8.8438 8.7969-3.9024 15.145-14.691 15.145-27.293 0-16.004-10.156-29.016-22.672-29.016z" fill="#995c30"/>
</g>
</g>
<text x="1812.8304" y="150.53084" fill="#000000" font-family="sans-serif" font-size="24.929px" letter-spacing="0px" stroke-width=".33687" word-spacing="0px" style="line-height:0.97" xml:space="preserve"><tspan x="1812.8304" y="150.53084" font-family="Raleway" font-size="24.929px" font-weight="900" stroke-width=".33687">C   FFEE</tspan></text>
</g>
<text x="101.24097" y="46.752674" fill="#000000" font-family="sans-serif" font-size="24.994px" letter-spacing="0px" stroke-width=".62484" word-spacing="0px" style="line-height:1.25" xml:space="preserve"><tspan x="101.24097" y="46.752674" font-family="Raleway" stroke-width=".62484">TRAVELR</tspan></text>
</g>
</svg>
